<?xml version="1.0" encoding="UTF-8" standalone="no"?>
<svg
   width="256"
   height="256"
   fill="none"
   version="1.1"
   viewBox="0 0 256 256"
   id="svg2"
   sodipodi:docname="logo.svg"
   xml:space="preserve"
   xmlns:inkscape="http://www.inkscape.org/namespaces/inkscape"
   xmlns:sodipodi="http://sodipodi.sourceforge.net/DTD/sodipodi-0.dtd"
   xmlns="http://www.w3.org/2000/svg"
   xmlns:svg="http://www.w3.org/2000/svg"><sodipodi:namedview
     id="namedview2"
     pagecolor="#ffffff"
     bordercolor="#000000"
     borderopacity="0.25"
     inkscape:showpageshadow="2"
     inkscape:pageopacity="0.0"
     inkscape:pagecheckerboard="0"
     inkscape:deskcolor="#d1d1d1" /><defs
     id="defs2"><linearGradient
       id="linearGradient6483"
       x1="73.488998"
       x2="203.5"
       y1="-38.337002"
       y2="-38.337002"
       gradientTransform="matrix(1.2926,1.4102,-1.7656,0.73627,-110.29,-29.835)"
       gradientUnits="userSpaceOnUse"><stop
         stop-color="#ce7ee3"
         offset=".3596"
         id="stop1" /><stop
         stop-color="#00e1bf"
         offset="1"
         id="stop2" /></linearGradient></defs><path
     d="M 111.27,21.016 V 57.19 h 73.304 l 2e-5,141.62 h -113.15 v -70.901 h 20.698 l 23.377,25.504 30.768,-12.83 -38.539,-42.046 -0.29656,0.12358 c -3.3054,-4.2197 -8.447,-6.9257 -14.247,-6.9257 h -35.233 c -0.75871,0 -1.5064,0.04662 -2.24,0.13643 -0.71677,-0.08662 -1.4448,-0.13643 -2.1857,-0.13643 h -0.37664 c -9.9157,0 -17.898,7.9828 -17.898,17.898 l 5e-6,107.45 c -2e-6,9.9157 7.9828,17.898 17.898,17.898 l 0.18784,10e-6 0.18882,2e-5 149.139995,-2e-5 4e-5,-0.18288 c 10.02,0 18.086,-8.0663 18.086,-18.086 v -177.61 c 0,-10.02 -8.0663,-18.087 -18.086,-18.087 z"
     fill="url(#linearGradient6483)"
     fill-rule="evenodd"
     stroke-width="0.55099"
     style="fill:url(#linearGradient6483);paint-order:stroke markers fill"
     id="path2" /></svg>
